<svg id="Calque_1" data-name="Calque 1" xmlns="http://www.w3.org/2000/svg" xmlns:xlink="http://www.w3.org/1999/xlink" viewBox="0 0 373.8 394.87"><defs><style>.cls-1{fill:url(#Nouvelle_nuance_de_dégradé_1);}.cls-2{fill:url(#Nouvelle_nuance_de_dégradé_1-2);}</style><linearGradient id="Nouvelle_nuance_de_dégradé_1" x1="100.4" y1="167.37" x2="250.41" y2="167.37" gradientUnits="userSpaceOnUse"><stop offset="0" stop-color="#5740b4"/><stop offset="1" stop-color="#6057fc"/></linearGradient><linearGradient id="Nouvelle_nuance_de_dégradé_1-2" x1="0" y1="197.43" x2="373.8" y2="197.43" xlink:href="#Nouvelle_nuance_de_dégradé_1"/></defs><title>Picto</title><path class="cls-1" d="M126.2,110.88A74.92,74.92,0,1,0,232,118.26,74.75,74.75,0,0,0,126.2,110.88Zm93.64,50.18L178.58,182.5a10.28,10.28,0,0,1-3.05,1.33,10.48,10.48,0,0,1-13.11-10.21V124.93a10.49,10.49,0,1,1,21,0v30.28L209,143.12a10.47,10.47,0,1,1,10.8,17.94Z"/><path class="cls-2" d="M355.84,300.93c-14.28-36.69-15.15-48.83-11.59-72.82,14.52-98-15.7-137.23-43.75-169.4C238.45-12.44,130.28-20,58.9,41.87A170.3,170.3,0,0,0,42,282.67c29.13,33.4,66,64.2,167.61,62.09,22.14-.46,49.14,7.62,69.42,20.17s48,46.28,79.46,20.45C386.56,362.37,370.12,337.62,355.84,300.93Zm-63.77,2.94c-15.59,15-38.46-2.87-51.43-10.62s-31.44-15.06-44.81-15.06c-65.7,0-89.51-18.14-108.34-39.26C47.38,194,52.27,125.78,98.41,86.68S214.47,52.34,254.58,97.32c18.13,20.34,34.53,42,28.28,107.12-1.75,18.16,1.6,33.62,9.21,53S306.5,290,292.07,303.87Z"/></svg>